<svg xmlns="http://www.w3.org/2000/svg" viewBox="0 0 202.48 193.33"><defs><style>.cls-1{font-size:22.8px;font-family:SinhalaMN, Sinhala MN;}.cls-1,.cls-2{fill:#aaa;}</style></defs><g id="素材用"><text class="cls-1" transform="translate(47.84 35.5) rotate(-34.04)">Y</text><text class="cls-1" transform="matrix(0.9, -0.43, 0.43, 0.9, 60.84, 27.17)">I</text><text class="cls-1" transform="translate(67.84 23.7) rotate(-17.79)">L</text><text class="cls-1" transform="matrix(0.99, -0.12, 0.12, 0.99, 80.52, 19.62)">A</text><text class="cls-1" transform="matrix(1, 0.08, -0.08, 1, 96.26, 17.71)">N</text><text class="cls-1" transform="translate(113.67 19.71) rotate(13.42)"> </text><text class="cls-1" transform="translate(119.57 20.91) rotate(21.04)">S</text><text class="cls-1" transform="translate(133.13 26.22) rotate(31.89)">T</text><text class="cls-1" transform="matrix(0.72, 0.69, -0.69, 0.72, 145.97, 34.19)">U</text><text class="cls-1" transform="translate(158.47 46.2) rotate(56.58)">D</text><text class="cls-1" transform="matrix(0.4, 0.91, -0.91, 0.4, 168.24, 62.02)">I</text><text class="cls-1" transform="translate(171.76 68.88) rotate(76.37)">O</text><text class="cls-1" transform="translate(175.83 88.61) rotate(85.87)"> </text><text class="cls-1" transform="translate(176.46 94.61) rotate(93.33)">S</text><text class="cls-1" transform="translate(175.63 109.12) rotate(104.81)">K</text><text class="cls-1" transform="translate(170.8 125.54) rotate(113.93)">I</text><text class="cls-1" transform="matrix(-0.53, 0.85, -0.85, -0.53, 167.72, 132.72)">L</text><text class="cls-1" transform="matrix(-0.66, 0.75, -0.75, -0.66, 160.63, 144.02)">L</text><text class="cls-1" transform="translate(151.47 153.94) rotate(138.46)"> </text><text class="cls-1" transform="translate(147.6 157.71) rotate(145.81)">Y</text><text class="cls-1" transform="translate(134.62 166.07) rotate(154.27)">I</text><text class="cls-1" transform="translate(127.61 169.57) rotate(162.08)">L</text><text class="cls-1" transform="translate(114.97 173.67) rotate(172.76)">A</text><text class="cls-1" transform="translate(99.24 175.63) rotate(-175.31)">N</text><text class="cls-1" transform="translate(81.82 173.67) rotate(-166.73)"> </text><text class="cls-1" transform="translate(75.91 172.49) rotate(-159.12)">S</text><text class="cls-1" transform="matrix(-0.85, -0.53, 0.53, -0.85, 62.34, 167.22)">T</text><text class="cls-1" transform="matrix(-0.73, -0.69, 0.69, -0.73, 49.48, 159.27)">U</text><text class="cls-1" transform="translate(36.93 147.28) rotate(-123.55)">D</text><text class="cls-1" transform="matrix(-0.41, -0.91, 0.91, -0.41, 27.13, 131.5)">I</text><text class="cls-1" transform="translate(23.59 124.63) rotate(-103.76)">O</text><text class="cls-1" transform="translate(19.48 104.92) rotate(-94.26)"> </text><text class="cls-1" transform="translate(18.83 98.92) rotate(-86.8)">S</text><text class="cls-1" transform="translate(19.63 84.4) rotate(-75.33)">K</text><text class="cls-1" transform="translate(24.41 67.99) rotate(-66.22)">I</text><text class="cls-1" transform="matrix(0.52, -0.85, 0.85, 0.52, 27.48, 60.78)">L</text><text class="cls-1" transform="translate(34.55 49.47) rotate(-48.76)">L</text><path class="cls-2" d="M106.46,14.49a1.13,1.13,0,0,1,.38,0h.52l0-.1a1.94,1.94,0,0,0,.86-.14l.32-.14.59-.15a.34.34,0,0,0,.26,0,.26.26,0,0,1,.19,0,.24.24,0,0,0,.18,0,1.76,1.76,0,0,1,1.52.47l-.1.05,1.88.69a5.77,5.77,0,0,1,.47.44,2.49,2.49,0,0,1,.45.7l.51.81.39.86.79,2a2.68,2.68,0,0,0,.24.8,9.81,9.81,0,0,1,.36,2.18l0,.91v1.43q-.14,1.11-.18,2.43a19.78,19.78,0,0,1-.24,2.58,12,12,0,0,1-.35,2.19c-.18.65-.4,1.34-.67,2.07l-.23.63-.56,1q-1.34,3.63-2.89,7.15c-1,2.35-2,4.38-2.86,6.08q-3.3,6.11-7,11.79a95.19,95.19,0,0,1-7.85,10.49l-.05-.11c-.12.31-.21.49-.29.52a26.2,26.2,0,0,1-.72,3c-.39,1.4-.79,2.8-1.18,4.2-.2.7-.36,1.38-.49,2s-.21,1.23-.26,1.68L90,84.33a1.54,1.54,0,0,0-.1.63,1.49,1.49,0,0,1-.1.63,20.85,20.85,0,0,1-.59,3.08q-.45,1.71-.81,3.18c-.2.53-.4,1.12-.61,1.79a14.13,14.13,0,0,0-.49,2.89l0-.1a.17.17,0,0,1,0,.21.2.2,0,0,0,0,.21.67.67,0,0,0-.07.42l-.23.89c-.12.32-.22.62-.3.92a3.3,3.3,0,0,0-.08,1.08,28.54,28.54,0,0,1-.79,3.5c-.36,1.21-.71,2.38-1.06,3.49l-.42,1.63.11,0L84,110.36a2.59,2.59,0,0,0-.15.53,2.53,2.53,0,0,1-.15.52,1.67,1.67,0,0,0-.12.58,1,1,0,0,1,0,.48c-.06.24-.21.68-.44,1.31a4.91,4.91,0,0,1-.32,1,1.18,1.18,0,0,0-.15.53v.26a8.64,8.64,0,0,1-.4,2.8l-.18.73-.24.9a3.76,3.76,0,0,1-.25.57,1.07,1.07,0,0,0-.15.53.67.67,0,0,0-.07.42,2.65,2.65,0,0,1,.62.49l.42.33,0-.1a1,1,0,0,0,.42.2.81.81,0,0,1,.41.19c21,7.72,49.78,9.1,70.75.31,15.49-6.49,32.25-21.76,38.72-38.29a50.94,50.94,0,0,0,2.36-8.14c0-.1.09-.26.17-.47a1.58,1.58,0,0,0,.12-.58l.69-3.44a21.3,21.3,0,0,1,.83-3.13c.15-.24.28-.34.38-.31l.79.29.63.23c0,.08.06.1.1.08s.07,0,.1.09a2.59,2.59,0,0,1,.49.62,2.36,2.36,0,0,1,.31,1.1c-.21.1-.24.32-.07.68q0,.27,0,.93a12.36,12.36,0,0,1-.12,1.42c-.07.52-.12,1-.15,1.38a3.67,3.67,0,0,1-.1.76,3.83,3.83,0,0,0-.55,1.49,8.77,8.77,0,0,0-.13,1.83,15.94,15.94,0,0,1-.3,1.9,4.32,4.32,0,0,1-.6,1.51c-.12.32-.27.69-.46,1.13a4.83,4.83,0,0,0-.35,1.07l-.53,2c-.3.48-.5.84-.62,1.06s-.2.45-.28.66l-.35.94a1.71,1.71,0,0,1-.28.52,1.88,1.88,0,0,0-.23.9,5.93,5.93,0,0,1-.8,1.67c-.14.06-.2.11-.19.15s0,.07-.08.1l-.1,0c-.16.42-.27.65-.34.68l-.29.79q-.34.67-.57,1.17a3.62,3.62,0,0,1-.39.7c-7.75,9.82-21.31,24-33,28.86-22,9-47.81,11.4-70.72,4l0,.11a8.69,8.69,0,0,1-2.2-.81l.11-.05-2.2-.81c.14.11.11.15-.08.11a3.8,3.8,0,0,1-.61-.18l-.41-.33a2.63,2.63,0,0,0-.68-.34.45.45,0,0,1-.37,0,.33.33,0,0,1-.26,0L80,126.66a1.8,1.8,0,0,1-.77.88l-.06.16c-.07,0-.1.06-.08.1s0,.07-.08.1l-.05-.1-.29.78-.45,1-3,7.54-2.82,7.44a1.91,1.91,0,0,1-.31,1.31l0-.11-.56,1-.28.79c-.12.32-.22.62-.3.92s-.16.55-.23.76l-.9,1.72a3.8,3.8,0,0,0-.91,1.27,8.63,8.63,0,0,0-.33,1.13l-1.11,1.82a3.91,3.91,0,0,1-.34.68,6.69,6.69,0,0,1-.39.57l-.23.63-.45,1a3.91,3.91,0,0,1-.34.68,1.35,1.35,0,0,0-.23.63L64,161.61l-.72,1c-.29.31-.69.75-1.2,1.34s-.92,1-1.21,1.34L59,167.08a1.33,1.33,0,0,1-.43.33l-.38.17a2.32,2.32,0,0,0-.59.41l-.05-.11a.8.8,0,0,1-.44.46c-.15.25-.41.33-.8.24l-.59.28a.81.81,0,0,1-.53.11.36.36,0,0,1-.27,0,3,3,0,0,1-1.28.33.76.76,0,0,1-.37-.09.17.17,0,0,0-.21,0,1.55,1.55,0,0,1-.53.11,3.39,3.39,0,0,1-1.1-.27l-.94-.61a1.53,1.53,0,0,1-.57-.39L50,168l-.89-.5a1.72,1.72,0,0,1-.69-.66,6.34,6.34,0,0,1-.63-1.07l-.42-.33a10.4,10.4,0,0,1-.9-1.67c-.25-1.11-.44-2-.58-2.67a11.48,11.48,0,0,1-.23-2.18c0-.67-.08-1.48-.09-2.44s0-1.92.09-2.9.16-1.91.29-2.75a11.62,11.62,0,0,1,.43-1.89l-.11.05.26-1.43.3-1.31.19-1,.76-2.31-.11.05a5.68,5.68,0,0,1,.41-1.36l.18-.74-.1,0,.41-1.37a10.41,10.41,0,0,0,.94-3c.67-1.35,1.11-2.23,1.32-2.63s.32-.48.35-.23l.06-.16.67-1.09,1-1.51c.26-.38.56-.82.89-1.32a9.33,9.33,0,0,1,.94-1.22l.76-.61,1.35-1a8.25,8.25,0,0,1,1.73-1.06l.43-.2a.21.21,0,0,0,.13-.13s.1-.11.25-.17a12.86,12.86,0,0,1,2.75-1.67,29.87,29.87,0,0,1,5.62-2c.71-.16,1.26-.28,1.65-.38a6.9,6.9,0,0,1,1.22-.17l-.11,0a1.81,1.81,0,0,0,.64,0,14.44,14.44,0,0,0,2.5-.24,4.16,4.16,0,0,0,.87,0,2.14,2.14,0,0,1,.76.11.28.28,0,0,1,.19,0,.19.19,0,0,0,.19,0l.84.14c0,.07.07,0,.11,0a7.77,7.77,0,0,0,.32-1c0-.14,0-.35.1-.63a1.63,1.63,0,0,1,.12-.58,3.8,3.8,0,0,0,.18-.61c0-.19.08-.43.12-.71l.92-3.94.32-1.85.14-1.37.53-1.68-.11,0,.62-2.89a8,8,0,0,0,.3-1.32l.3-1c.15-.41.34-1.05.56-1.89a22.47,22.47,0,0,0,.54-3l.37-1.74.36-1.47-.11,0,.72-2.68c.07-.21.16-.45.26-.71a5.34,5.34,0,0,0,.21-.81l.47-1.52-.11,0,.57-3.27c0,.1,0-.14.18-.74s.37-1.32.63-2.18.51-1.71.76-2.57.44-1.53.56-2l.07-.42-.22.36-1.76,2.12-2.88,2.25-2.39,2.15a.23.23,0,0,0-.14.13s-.1.11-.24.17A40.54,40.54,0,0,1,73.79,89a20.58,20.58,0,0,1-2.67,1.56c-1.05.54-2,1-2.76,1.35s-1.85.81-3,1.24-2.16.78-3.16,1.07-2.23.64-3.47,1a16.4,16.4,0,0,1-3.41.54l-3.18.3a12.45,12.45,0,0,1-3.07,0L48,95.84l-1.16-.25,0,.11-4.21-.92-3-1.1a8.31,8.31,0,0,1-2.65-1.51l.11,0a10.24,10.24,0,0,1-3.28-2l-.67-.6a2.64,2.64,0,0,0-.83-.66L31.72,88a.66.66,0,0,0-.15-.19.58.58,0,0,1-.16-.19,5,5,0,0,1-.89-1.22c-.28-.52-.58-1-.88-1.48l-.2-.43a6.16,6.16,0,0,1-.72-1.42,14,14,0,0,1-.56-1.64l-.05-.1v-.53a1.12,1.12,0,0,1,.68-1.36l.38-.31a1.77,1.77,0,0,1,.8-.37c.29,0,.53.15.73.58l1.44,3.11a6.81,6.81,0,0,0,.86,1.3l.31.38a4.54,4.54,0,0,0,.48.76,2.6,2.6,0,0,0,.69.65l2.21,2.24c.15-.07.39.08.73.44l0-.1c.87.55,1.65,1,2.34,1.39a9,9,0,0,0,2.63.87,10.07,10.07,0,0,0,1.59.63c.51.16,1,.28,1.34.36l1,.19a8.67,8.67,0,0,0,1.61.23c.58,0,1.1.08,1.56.13l-.11,0a1.84,1.84,0,0,0,.64,0,39.44,39.44,0,0,0,4.88-.3,32.64,32.64,0,0,0,4.74-.89c1.07-.32,2.26-.7,3.58-1.14a33.94,33.94,0,0,0,3.7-1.45c1.14-.53,2.31-1.11,3.49-1.75s2.25-1.25,3.18-1.86l1.14-.92,1.19-.81c.33-.24.7-.5,1.14-.79a7.19,7.19,0,0,0,1.47-1.47l2-1.58,1.35-1-.11,0,2.07-1.74,4-4.7c.18-.17.29-.22.32-.15l.47-1.26c-.07-.14,0-.47.18-1a22.15,22.15,0,0,0,.47-2.36c.15-1,.26-1.89.32-2.7a4,4,0,0,0,.18-.6,6.26,6.26,0,0,0,.08-.82,1,1,0,0,1,0-.79l.13-.84.55-2.48c0-.17,0-.4,0-.66a4.35,4.35,0,0,1,.3-1.18l.42-1.63-.11.05.54-1.94.19-1.27A6.26,6.26,0,0,1,92.27,50l-.11,0,.2-1.27.49-2.32.46-1.25c.16-.42.28-.8.38-1.16a4.79,4.79,0,0,0,.17-1,10.94,10.94,0,0,1,.47-2.63,25.57,25.57,0,0,1,1-2.89l-.1.05a5.8,5.8,0,0,1,.3-1.31,5.28,5.28,0,0,0,.3-1.32L96.27,33l1.16-3.41.18-.73-.1.05,1-3.2a13.5,13.5,0,0,1,1.09-2.59c.44-.82.84-1.61,1.18-2.38l.78-1.4.44-.47-.11.05.5-.88.83-1,.87-.66,2.28-1.84ZM70.91,125.28a8.74,8.74,0,0,0-2.61.42c-1,.31-2,.61-2.78.9l-3.29,1.91a4.91,4.91,0,0,0-1.43,1c-.38.4-.79.78-1.23,1.16l-.65.56a.73.73,0,0,0-.33.42,12.44,12.44,0,0,0-1.26,1.49l-1.11,1.56,0-.11-.39.84-.45.73a2.16,2.16,0,0,0-.29.78l-.39.84a7.81,7.81,0,0,0-.46,1,2.92,2.92,0,0,0,0,1.32,12.58,12.58,0,0,0-1.84,5l-.48,1.79-.42,1.89a8.31,8.31,0,0,0-.09,1c0,.28-.07.58-.1.9s0,.65-.06,1a1.06,1.06,0,0,0,0,.8,31.29,31.29,0,0,0-.32,4.52,26.5,26.5,0,0,0,.42,4.43,2.49,2.49,0,0,0,.65,1.4l.25.53a.67.67,0,0,0,.2.3.44.44,0,0,1,.1.35l.78.29c.22-.1.58,0,1.1.4l.16.06.75-.35a1,1,0,0,1,.29-.07,2.6,2.6,0,0,0,.62-.22.26.26,0,0,0,.14-.13.24.24,0,0,1,.13-.13l.28-.25a1.08,1.08,0,0,1,.37-.31.42.42,0,0,0,.19-.16l.52-.56,1.16-1.45a6.27,6.27,0,0,0,.77-1c.22-.36.5-.84.84-1.43.52-.94,1-1.79,1.43-2.55a18.14,18.14,0,0,0,1.1-2.41,3.91,3.91,0,0,0,.34-.68l.4-1.1A20,20,0,0,0,66,147.64l.56-1,.4-.84.65-2.26c.68-1.35,1.2-2.47,1.58-3.34s.72-1.73,1-2.56l.75-2c.54-1.46,1-2.81,1.53-4a26.29,26.29,0,0,1,1.27-2.87c.08-.21.16-.42.23-.63s.16-.42.23-.63l.46-1a.79.79,0,0,0,.24-.9Zm10.7-26.74,0,.1v-.26Zm27.45-80.69a1.16,1.16,0,0,1-.69.19.51.51,0,0,1-.37.05l-1.14.91L107,19l-1,1.51a.94.94,0,0,0-.39.57,2,2,0,0,0-.4,1.1.67.67,0,0,0-.07.42,22.43,22.43,0,0,0-1.23,3.12c-.26.86-.52,1.74-.79,2.65l-.35.94-.88,2.89-.18.73L101,34.61c.3-.31.32-.12.07.56a12.59,12.59,0,0,0-.5,1.6l-.35.94-.18.74.11-.05-.38,2-.24.89-.69,1.89.11,0-.71,2.42L98,47.12l-.85,3.53a7.67,7.67,0,0,0-.21.81c-.06.34-.13.65-.21.95s-.15.52-.21.68-.08.15-.07,0a.87.87,0,0,0,0,.37c0,.08,0,.13-.06.16l-.35.94.11-.05a3.2,3.2,0,0,1-.22,1.08,3.56,3.56,0,0,0-.21,1.08l-.39,2.27a5.87,5.87,0,0,0-.23.76q-.12.45-.33,2l-.31,1.57c0,.08.07.1.1.09s0,.08-.06.29c1.07-1.45,2.17-3,3.3-4.72s2.21-3.4,3.24-5.1c1.7-2.52,3.13-4.84,4.29-6.94s2.23-4.25,3.21-6.44a15.74,15.74,0,0,0,1.38-3.51l.46-1.26-.11,0L111.45,32a1.39,1.39,0,0,1,.09-.5c.06-.16.13-.34.2-.55a1.91,1.91,0,0,0,.13-.58l-.11.05a1,1,0,0,1,.12-.45,1,1,0,0,0,.12-.44l.37-1.74a6.75,6.75,0,0,0,.18-2.69l-.06-1.28-.13-1.11a1.11,1.11,0,0,1-.09-.48l0,.1L112,20.91l-.84-1.83L110.44,18a.69.69,0,0,1-.43-.07l-.84-.13Z"/><path class="cls-2" d="M110,13.88a1.76,1.76,0,0,1,1.22.49l-.1.05,1.88.69a5.77,5.77,0,0,1,.47.44,2.49,2.49,0,0,1,.45.7l.51.81.39.86.79,2a2.68,2.68,0,0,0,.24.8,9.81,9.81,0,0,1,.36,2.18l0,.91v1.43q-.14,1.11-.18,2.43a19.78,19.78,0,0,1-.24,2.58,12,12,0,0,1-.35,2.19c-.18.65-.4,1.34-.67,2.07l-.23.63-.56,1q-1.34,3.63-2.89,7.15c-1,2.35-2,4.38-2.86,6.08q-3.3,6.11-7,11.79a95.19,95.19,0,0,1-7.85,10.49l-.05-.11c-.12.31-.21.49-.29.52a26.2,26.2,0,0,1-.72,3c-.39,1.4-.79,2.8-1.18,4.2-.2.7-.36,1.38-.49,2s-.21,1.23-.26,1.68L90,84.33a1.54,1.54,0,0,0-.1.63,1.49,1.49,0,0,1-.1.63,20.85,20.85,0,0,1-.59,3.08q-.45,1.71-.81,3.18c-.2.53-.4,1.12-.61,1.79a14.13,14.13,0,0,0-.49,2.89l0-.1a.17.17,0,0,1,0,.21.2.2,0,0,0,0,.21.67.67,0,0,0-.07.42l-.23.89c-.12.32-.22.62-.3.92a3.3,3.3,0,0,0-.08,1.08,28.54,28.54,0,0,1-.79,3.5c-.36,1.21-.71,2.38-1.06,3.49l-.42,1.63.11,0L84,110.36a2.59,2.59,0,0,0-.15.53,2.53,2.53,0,0,1-.15.52,1.67,1.67,0,0,0-.12.58,1,1,0,0,1,0,.48c-.06.24-.21.68-.44,1.31a4.91,4.91,0,0,1-.32,1,1.18,1.18,0,0,0-.15.53v.26a8.64,8.64,0,0,1-.4,2.8l-.18.73-.24.9a3.76,3.76,0,0,1-.25.57,1.07,1.07,0,0,0-.15.53.67.67,0,0,0-.07.42,2.65,2.65,0,0,1,.62.49l.42.33,0-.1a1,1,0,0,0,.42.2.81.81,0,0,1,.41.19,110.75,110.75,0,0,0,37.3,6.36c11.8,0,23.5-1.88,33.45-6,15.49-6.49,32.25-21.76,38.72-38.29a50.94,50.94,0,0,0,2.36-8.14c0-.1.09-.26.17-.47a1.58,1.58,0,0,0,.12-.58l.69-3.44a21.3,21.3,0,0,1,.83-3.13c.13-.21.24-.31.34-.31h0l.79.29.63.23c0,.06,0,.09.08.09h0s.06,0,.08.09a2.59,2.59,0,0,1,.49.62,2.36,2.36,0,0,1,.31,1.1c-.21.1-.24.32-.07.68q0,.27,0,.93a12.36,12.36,0,0,1-.12,1.42c-.07.52-.12,1-.15,1.38a3.67,3.67,0,0,1-.1.76,3.83,3.83,0,0,0-.55,1.49,8.77,8.77,0,0,0-.13,1.83,15.94,15.94,0,0,1-.3,1.9,4.32,4.32,0,0,1-.6,1.51c-.12.32-.27.69-.46,1.13a4.83,4.83,0,0,0-.35,1.07l-.53,2c-.3.48-.5.84-.62,1.06s-.2.45-.28.66l-.35.94a1.71,1.71,0,0,1-.28.52,1.88,1.88,0,0,0-.23.9,5.93,5.93,0,0,1-.8,1.67c-.14.06-.2.11-.19.15s0,.07-.08.1l-.1,0c-.16.42-.27.65-.34.68l-.29.79q-.34.67-.57,1.17a4.39,4.39,0,0,1-.38.7c-7.76,9.82-21.32,24-33,28.86a111.74,111.74,0,0,1-42,8.38,93.59,93.59,0,0,1-28.76-4.38l0,.11a8.69,8.69,0,0,1-2.2-.81l.11-.05-2.2-.81c.1.08.11.12,0,.12h-.12a3.8,3.8,0,0,1-.61-.18l-.41-.33a2.63,2.63,0,0,0-.68-.34.61.61,0,0,1-.25.06.25.25,0,0,1-.12,0,.2.2,0,0,1-.11,0,.4.4,0,0,1-.15,0L80,126.66a1.8,1.8,0,0,1-.77.88l-.06.16c-.07,0-.1.06-.08.1s0,.07-.08.1l-.05-.1-.29.78-.45,1-3,7.54-2.82,7.44a1.91,1.91,0,0,1-.31,1.31l0-.11-.56,1-.28.79c-.12.32-.22.62-.3.92s-.16.55-.23.76l-.9,1.72a3.8,3.8,0,0,0-.91,1.27,8.63,8.63,0,0,0-.33,1.13l-1.11,1.82a3.91,3.91,0,0,1-.34.68,6.69,6.69,0,0,1-.39.57l-.23.63-.45,1a3.91,3.91,0,0,1-.34.68,1.35,1.35,0,0,0-.23.63L64,161.61l-.72,1c-.29.31-.69.75-1.2,1.34s-.92,1-1.21,1.34L59,167.08a1.33,1.33,0,0,1-.43.33l-.38.17a2.32,2.32,0,0,0-.59.41l-.05-.11a.8.8,0,0,1-.44.46.58.58,0,0,1-.53.27l-.27,0-.59.28a1.34,1.34,0,0,1-.44.13l-.09,0a.23.23,0,0,1-.11,0l-.16,0a3.06,3.06,0,0,1-1.24.33h0a.76.76,0,0,1-.37-.09.17.17,0,0,0-.13-.05.13.13,0,0,0-.08,0,1.55,1.55,0,0,1-.53.11h0a3.6,3.6,0,0,1-1.07-.27l-.94-.61a1.53,1.53,0,0,1-.57-.39L50,168l-.89-.5a1.72,1.72,0,0,1-.69-.66,6.34,6.34,0,0,1-.63-1.07l-.42-.33a10.4,10.4,0,0,1-.9-1.67c-.25-1.11-.44-2-.58-2.67a11.48,11.48,0,0,1-.23-2.18c0-.67-.08-1.48-.09-2.44s0-1.92.09-2.9.16-1.91.29-2.75a11.62,11.62,0,0,1,.43-1.89l-.11.05.26-1.43.3-1.31.19-1,.76-2.31-.11.05a5.68,5.68,0,0,1,.41-1.36l.18-.74-.1,0,.41-1.37a10.41,10.41,0,0,0,.94-3c.67-1.35,1.11-2.23,1.32-2.63.13-.25.22-.37.28-.37s.06,0,.07.14l.06-.16.67-1.09,1-1.51c.26-.38.56-.82.89-1.32a9.33,9.33,0,0,1,.94-1.22l.76-.61,1.35-1a8.25,8.25,0,0,1,1.73-1.06l.43-.2a.21.21,0,0,0,.13-.13s.1-.11.25-.17a12.86,12.86,0,0,1,2.75-1.67,29.87,29.87,0,0,1,5.62-2c.71-.16,1.26-.28,1.65-.38a6.9,6.9,0,0,1,1.22-.17l-.11,0h.24a1.09,1.09,0,0,0,.4,0h.14a16,16,0,0,0,2.36-.25,4.08,4.08,0,0,0,.71.06h.25a1.92,1.92,0,0,1,.67.11.22.22,0,0,1,.13,0h.06l.06,0a.38.38,0,0,0,.13,0l.84.14s0,0,0,0,0,0,.07-.09a7.77,7.77,0,0,0,.32-1c0-.14,0-.35.1-.63a1.63,1.63,0,0,1,.12-.58,3.8,3.8,0,0,0,.18-.61c0-.19.08-.43.12-.71l.92-3.94.32-1.85.14-1.37.53-1.68-.11,0,.62-2.89a8,8,0,0,0,.3-1.32l.3-1c.15-.41.34-1.05.56-1.89a22.76,22.76,0,0,0,.54-3l.37-1.74.36-1.47-.11,0,.72-2.68c.07-.21.16-.45.26-.71a5.34,5.34,0,0,0,.21-.81l.47-1.52-.11,0,.57-3.27a0,0,0,0,1,0,0s.06-.25.19-.76.37-1.32.63-2.18.51-1.71.76-2.57.44-1.53.56-2l.07-.42-.22.36-1.76,2.12-2.88,2.25-2.39,2.15a.23.23,0,0,0-.14.13s-.1.11-.24.17A40.54,40.54,0,0,1,73.79,89a20.58,20.58,0,0,1-2.67,1.56c-1.05.54-2,1-2.76,1.35s-1.85.81-3,1.24-2.16.78-3.16,1.07-2.23.64-3.47,1a16.4,16.4,0,0,1-3.41.54l-3.18.3a16.12,16.12,0,0,1-1.62.09,9.09,9.09,0,0,1-1.45-.1L48,95.84l-1.16-.25,0,.11-4.21-.92-3-1.1a8.31,8.31,0,0,1-2.65-1.51l.11,0a10.24,10.24,0,0,1-3.28-2l-.67-.6a2.64,2.64,0,0,0-.83-.66L31.72,88a.66.66,0,0,0-.15-.19.58.58,0,0,1-.16-.19,5,5,0,0,1-.89-1.22c-.28-.52-.58-1-.88-1.48l-.2-.43a6.16,6.16,0,0,1-.72-1.42,14,14,0,0,1-.56-1.64l-.05-.1v-.53a1.12,1.12,0,0,1,.68-1.36l.38-.31a1.77,1.77,0,0,1,.8-.37h.08c.25,0,.47.19.65.58l1.44,3.11a6.81,6.81,0,0,0,.86,1.3l.31.38a4.54,4.54,0,0,0,.48.76,2.6,2.6,0,0,0,.69.65l2.21,2.24.08,0c.14,0,.36.16.65.46l0-.1c.87.55,1.65,1,2.34,1.39a9,9,0,0,0,2.63.87,10.07,10.07,0,0,0,1.59.63c.51.16,1,.28,1.34.36l1,.19a8.67,8.67,0,0,0,1.61.23c.58,0,1.1.08,1.56.13l-.11,0h.24a1.12,1.12,0,0,0,.4,0h.2a40.16,40.16,0,0,0,4.68-.31,32.64,32.64,0,0,0,4.74-.89c1.07-.32,2.26-.7,3.58-1.14a33.94,33.94,0,0,0,3.7-1.45c1.14-.53,2.31-1.11,3.49-1.75s2.25-1.25,3.18-1.86l1.14-.92,1.19-.81c.33-.24.7-.5,1.14-.79a7.19,7.19,0,0,0,1.47-1.47l2-1.58,1.35-1-.11,0,2.07-1.74,4-4.7c.13-.12.22-.18.28-.18s0,0,0,0l.47-1.26c-.07-.14,0-.47.18-1a22.15,22.15,0,0,0,.47-2.36c.15-1,.26-1.89.32-2.7a4,4,0,0,0,.18-.6,6.26,6.26,0,0,0,.08-.82,1,1,0,0,1,0-.79l.13-.84.55-2.48c0-.17,0-.4,0-.66a4.35,4.35,0,0,1,.3-1.18l.42-1.63-.11.05.54-1.94.19-1.27A6.26,6.26,0,0,1,92.27,50l-.11,0,.2-1.27.49-2.32.46-1.25c.16-.42.28-.8.38-1.16a4.79,4.79,0,0,0,.17-1,10.94,10.94,0,0,1,.47-2.63,25.57,25.57,0,0,1,1-2.89l-.1.05a5.8,5.8,0,0,1,.3-1.31,5.28,5.28,0,0,0,.3-1.32L96.27,33l1.16-3.41.18-.73-.1.05,1-3.2a13.5,13.5,0,0,1,1.09-2.59c.44-.82.84-1.61,1.18-2.38l.78-1.4.44-.47-.11.05.5-.88.83-1,.87-.66,2.28-1.84.1,0a.85.85,0,0,1,.32,0h.58l0-.1h.12a1.74,1.74,0,0,0,.74-.14l.32-.14.59-.15.15,0a.2.2,0,0,0,.11,0l.12,0h.13a.3.3,0,0,0,.12,0,1.51,1.51,0,0,1,.3,0m-1.57,4.17h-.07a.5.5,0,0,1-.25.07l-.12,0-1.14.91L107,19l-1,1.51c-.15.07-.27.26-.39.57a2,2,0,0,0-.4,1.1.67.67,0,0,0-.07.42,22.43,22.43,0,0,0-1.23,3.12c-.26.86-.52,1.74-.79,2.65l-.35.94-.88,2.89-.18.73L101,34.61c.09-.09.16-.14.2-.14s0,.23-.13.7a12.59,12.59,0,0,0-.5,1.6l-.35.94-.18.74.11-.05-.38,2-.24.89-.69,1.89.11,0-.71,2.42L98,47.12l-.85,3.53a7.67,7.67,0,0,0-.21.81c-.06.34-.13.65-.21.95s-.15.52-.21.68,0,.11-.06.11,0,0,0-.14h0a.87.87,0,0,0,0,.37c0,.08,0,.13-.06.16l-.35.94.11-.05a3.2,3.2,0,0,1-.22,1.08,3.56,3.56,0,0,0-.21,1.08l-.39,2.27a5.87,5.87,0,0,0-.23.76q-.12.45-.33,2l-.31,1.57c0,.06,0,.09.08.09h0s0,.09-.07.29c1.07-1.45,2.17-3,3.3-4.72s2.21-3.4,3.24-5.1c1.7-2.52,3.13-4.84,4.29-6.94s2.23-4.25,3.21-6.44a15.74,15.74,0,0,0,1.38-3.51l.46-1.26-.11,0L111.45,32a1.39,1.39,0,0,1,.09-.5c.06-.16.13-.34.2-.55a1.91,1.91,0,0,0,.13-.58l-.11.05a1,1,0,0,1,.12-.45,1,1,0,0,0,.12-.44l.37-1.74a6.75,6.75,0,0,0,.18-2.69l-.06-1.28-.13-1.11a1.11,1.11,0,0,1-.09-.48l0,.1L112,20.91l-.84-1.83L110.44,18h-.09a.94.94,0,0,1-.34-.08l-.84-.13-.11.05a1.61,1.61,0,0,1-.62.2M81.67,98.38l-.06.16,0,.1v-.26M56.22,134.69l0-.11-.39.84-.45.73a2.16,2.16,0,0,0-.29.78l-.39.84a7.81,7.81,0,0,0-.46,1,2.92,2.92,0,0,0,0,1.32,12.58,12.58,0,0,0-1.84,5l-.48,1.79-.42,1.89a8.31,8.31,0,0,0-.09,1c0,.28-.07.58-.1.9s0,.65-.06,1a1.06,1.06,0,0,0,0,.8,31.29,31.29,0,0,0-.32,4.52,26.5,26.5,0,0,0,.42,4.43,2.49,2.49,0,0,0,.65,1.4l.25.53a.67.67,0,0,0,.2.3.44.44,0,0,1,.1.35l.78.29a.42.42,0,0,1,.16,0,1.88,1.88,0,0,1,.94.44l.16.06.75-.35a1,1,0,0,1,.29-.07,2.6,2.6,0,0,0,.62-.22.26.26,0,0,0,.14-.13.24.24,0,0,1,.13-.13l.28-.25a1.08,1.08,0,0,1,.37-.31.47.47,0,0,0,.19-.15l.52-.57,1.16-1.45a6.27,6.27,0,0,0,.77-1c.22-.36.5-.84.84-1.43.52-.94,1-1.79,1.43-2.55a18.14,18.14,0,0,0,1.1-2.41,3.91,3.91,0,0,0,.34-.68l.4-1.1A20,20,0,0,0,66,147.64l.56-1,.4-.84.65-2.26c.68-1.35,1.2-2.47,1.58-3.34s.72-1.73,1-2.56l.75-2c.54-1.46,1-2.81,1.53-4a26.29,26.29,0,0,1,1.27-2.87c.08-.21.16-.42.23-.63s.16-.42.23-.63l.46-1a.79.79,0,0,0,.24-.9l-4-.22h-.14a9.15,9.15,0,0,0-2.47.42c-1,.31-2,.61-2.78.9l-3.29,1.91a4.91,4.91,0,0,0-1.43,1c-.38.4-.79.78-1.23,1.16l-.65.56a.73.73,0,0,0-.33.42,13.27,13.27,0,0,0-1.26,1.49l-1.11,1.56M107,19h0M100.19,38.4h0M99,43.13h0M96.16,54.48h0M84.38,108.73h0M70.61,121h0M110,12.88l-.45,0h-.1l-.27,0h-.11a1,1,0,0,0-.24,0l-.59.14-.18.07-.32.15a1,1,0,0,1-.32,0h-.12a1,1,0,0,0-.42.09h-.11a1.73,1.73,0,0,0-.74.13l-.11.05a1.37,1.37,0,0,0-.2.13l-2.28,1.84-.85.65a.91.91,0,0,0-.17.17l-.83,1-.08.13-.51.89,0,.05-.16.17a1.43,1.43,0,0,0-.14.2l-.79,1.41a.59.59,0,0,1,0,.08c-.33.74-.71,1.51-1.14,2.3a14.85,14.85,0,0,0-1.17,2.78l-1,3.19a1,1,0,0,0,0,.49l0,.21-1.14,3.37a.19.19,0,0,0,0,.1l-.43,1.89a.5.5,0,0,0,0,.12,4.28,4.28,0,0,1-.25,1.07,6.81,6.81,0,0,0-.36,1.56v.11a21.32,21.32,0,0,0-.87,2.56A12,12,0,0,0,92.86,43a3.7,3.7,0,0,1-.13.81q-.14.48-.36,1.08l-.46,1.26s0,.09,0,.14l-.49,2.31s0,0,0,.06l-.2,1.26a1,1,0,0,0,0,.24,6.26,6.26,0,0,0-.32,1.66L90.67,53l-.52,1.89a1,1,0,0,0,0,.45l-.29,1.1a4.94,4.94,0,0,0-.34,1.45l0,.57L89,60.81a.13.13,0,0,1,0,.06l-.12.76a2.11,2.11,0,0,0,0,1.18,3.36,3.36,0,0,1,0,.46,3.48,3.48,0,0,1-.14.47,1.31,1.31,0,0,0-.06.27c-.06.78-.16,1.66-.31,2.61s-.29,1.67-.43,2.22a3.42,3.42,0,0,0-.26,1.2l-.22.59-.22.19-.08.09-3.9,4.63-2,1.69-.12.11-1.08.82-2,1.6a1.21,1.21,0,0,0-.16.16,6,6,0,0,1-1.24,1.25c-.45.3-.84.57-1.18.82l-1.16.79-.06,0-1.1.88c-.9.59-1.93,1.19-3.07,1.8s-2.32,1.2-3.44,1.72a32.73,32.73,0,0,1-3.59,1.41c-1.32.44-2.52.82-3.56,1.13a32.77,32.77,0,0,1-4.57.86,38,38,0,0,1-4.56.3H50a1,1,0,0,0-.24,0,.58.58,0,0,0-.19,0c-.47,0-1-.1-1.6-.14a7.58,7.58,0,0,1-1.43-.2h-.05l-1-.19c-.33-.07-.76-.18-1.23-.33a11.72,11.72,0,0,1-1.47-.58.9.9,0,0,0-.23-.08,8,8,0,0,1-2.34-.77q-1-.56-2.28-1.35l-.08,0a1.84,1.84,0,0,0-.67-.4l-2-2a.7.7,0,0,0-.19-.15,1.76,1.76,0,0,1-.42-.41,3.64,3.64,0,0,1-.37-.57,1.13,1.13,0,0,0-.12-.21l-.31-.38A5.25,5.25,0,0,1,33.06,82l-1.45-3.11a1.69,1.69,0,0,0-1.55-1.16h-.23a2.81,2.81,0,0,0-1.28.58l-.3.24a2.09,2.09,0,0,0-1.13,2.28v.43a.89.89,0,0,0,.09.45v0a16.74,16.74,0,0,0,.58,1.65A7.62,7.62,0,0,0,28.57,85l.16.34a.75.75,0,0,0,.07.12c.29.45.58.93.85,1.43a5.65,5.65,0,0,0,1,1.35,1.81,1.81,0,0,0,.25.3l.05.07.67.87a1,1,0,0,0,.44.33h0a2,2,0,0,1,.45.4l.06.06.67.6a11.36,11.36,0,0,0,3.13,2s0,0,.06.05a9.25,9.25,0,0,0,3,1.69l1.68.62,1.31.48.13,0,4.21.92.21,0a.91.91,0,0,0,.23,0l.67.15h.08L49,97a10.68,10.68,0,0,0,1.58.11,15.42,15.42,0,0,0,1.72-.1l3.17-.3A16.45,16.45,0,0,0,59,96.12c1.27-.32,2.46-.65,3.52-1s2.09-.65,3.23-1.09,2.12-.85,3-1.26,1.75-.84,2.79-1.36a24.15,24.15,0,0,0,2.76-1.61,43.47,43.47,0,0,0,5.07-3.39,1.46,1.46,0,0,0,.49-.39l0,0,2.37-2.13,2.12-1.66-.26.9c-.28.91-.48,1.64-.63,2.21a8.5,8.5,0,0,0-.22.89l-.56,3.19a1,1,0,0,0,0,.3l-.33,1,0,.14a3.74,3.74,0,0,1-.16.62l-.13.36-.13.36,0,.08L81.22,95a1,1,0,0,0,0,.45l-.24,1-.38,1.77a.28.28,0,0,0,0,.09,22.07,22.07,0,0,1-.52,2.92c-.21.81-.39,1.41-.53,1.8a.19.19,0,0,0,0,.07l-.3,1.05,0,.12a5.86,5.86,0,0,1-.25,1.12.74.74,0,0,0,0,.14l-.62,2.89a1.22,1.22,0,0,0,0,.33L77.87,110a1.62,1.62,0,0,0,0,.19l-.15,1.35-.3,1.78-.91,3.92a.15.15,0,0,0,0,.07c0,.26-.08.47-.12.65a3.48,3.48,0,0,1-.14.47,3,3,0,0,0-.18.83l-.09.58a.64.64,0,0,0,0,.09h-.1l-.15,0-.17,0h-.17a3.22,3.22,0,0,0-.71-.08h-.25a3.21,3.21,0,0,1-.55,0h-.32a14.36,14.36,0,0,1-2.2.24h-.14a.85.85,0,0,0-.23,0,.92.92,0,0,0-.29,0h-.07a8.91,8.91,0,0,0-1.4.2c-.38.1-.93.22-1.63.37a31.51,31.51,0,0,0-5.82,2,13.82,13.82,0,0,0-2.87,1.73,1.37,1.37,0,0,0-.43.32l-.26.12a9.16,9.16,0,0,0-1.94,1.19l-1.32,1-.79.64a.28.28,0,0,0-.1.09A10.48,10.48,0,0,0,53,129c-.33.51-.63.94-.88,1.32l-1,1.52-.49.79a1.86,1.86,0,0,0-.64.78c-.21.4-.65,1.28-1.33,2.64a.8.8,0,0,0-.09.3,9.62,9.62,0,0,1-.85,2.75l-.06.16-.41,1.36a1,1,0,0,0,0,.48l0,.2a4.5,4.5,0,0,0-.45,1.78l-.6,1.83,0,.12-.19,1-.3,1.28a.11.11,0,0,1,0,.05l-.25,1.42a1,1,0,0,0,0,.3,14,14,0,0,0-.31,1.57c-.14.87-.24,1.83-.31,2.83s-.09,2-.09,3,0,1.8.09,2.48a13.1,13.1,0,0,0,.25,2.33c.14.68.33,1.58.58,2.69a1.59,1.59,0,0,0,.07.2,9.41,9.41,0,0,0,1,1.87l.16.16.24.19a8.48,8.48,0,0,0,.61,1,2.75,2.75,0,0,0,1.07,1l.4.23.09.11a2.59,2.59,0,0,0,.83.59l.86.56.2.1a4.37,4.37,0,0,0,1.42.33h.08a2.72,2.72,0,0,0,.52-.07,2.49,2.49,0,0,0,.5.08h.08A3.7,3.7,0,0,0,55,170h.22a2,2,0,0,0,.86-.23l.33-.15h.11a1.6,1.6,0,0,0,1.19-.49,2.13,2.13,0,0,0,.32-.26,1,1,0,0,0,.2-.15,1.31,1.31,0,0,1,.32-.22l.12-.06.26-.12a2.25,2.25,0,0,0,.74-.54L61.56,166l0,0c.3-.32.71-.77,1.23-1.36s.91-1,1.18-1.31l.08-.1.72-1,0,0,1.44-2.23a.93.93,0,0,0,.16-.51h0a1.11,1.11,0,0,0,.08-.15,4.41,4.41,0,0,0,.41-.81l.44-1,0-.07.18-.49a4.43,4.43,0,0,0,.35-.53,4.51,4.51,0,0,0,.39-.75l1.07-1.75a.84.84,0,0,0,.12-.31,6.63,6.63,0,0,1,.29-1,2.92,2.92,0,0,1,.68-.92,1.08,1.08,0,0,0,.18-.24l.9-1.72a.5.5,0,0,0,0-.13c.09-.25.18-.53.26-.83s.16-.54.26-.83l.27-.72.29-.55a.76.76,0,0,0,.23-.24,2.82,2.82,0,0,0,.49-1.72l2.74-7.24,3-7.51.44-.95,0-.07.11-.3a1.35,1.35,0,0,0,.28-.36s0,0,0-.05a2.5,2.5,0,0,0,.41-.39l.47.14a1.48,1.48,0,0,0,.46.08h.41l.13.07.41.33a1,1,0,0,0,.28.16,5.52,5.52,0,0,0,.74.21,1.35,1.35,0,0,0,.33,0h.1l1.26.46a1.12,1.12,0,0,0,.22.16,9.53,9.53,0,0,0,2.47.91l.2,0h.11a94.58,94.58,0,0,0,28.6,4.28A112.88,112.88,0,0,0,159,126.2c11.34-4.65,24.71-18.11,33.44-29.16a4.53,4.53,0,0,0,.51-.9c.15-.33.33-.71.55-1.14l0-.11.22-.61a2.52,2.52,0,0,0,.27-.52,1,1,0,0,0,.2-.21.77.77,0,0,0,.21-.23,6.64,6.64,0,0,0,.93-2,.78.78,0,0,0,0-.14,4.37,4.37,0,0,1,.07-.44,2.9,2.9,0,0,0,.39-.72l.35-1a4.86,4.86,0,0,1,.24-.55c.09-.19.29-.52.57-1a.85.85,0,0,0,.11-.26l.54-1.94a.52.52,0,0,0,0-.11,3.89,3.89,0,0,1,.28-.83c.18-.41.32-.77.44-1.07a5.76,5.76,0,0,0,.68-1.75,16,16,0,0,0,.31-2,.37.37,0,0,0,0-.11,7.55,7.55,0,0,1,.12-1.63,2.81,2.81,0,0,1,.38-1.09,1.19,1.19,0,0,0,.12-.22,4.26,4.26,0,0,0,.16-1c0-.39.07-.83.14-1.31s.11-1.05.13-1.53l0-.68v-.25a1.24,1.24,0,0,0,0-.27,1,1,0,0,0,.1-.5,3.32,3.32,0,0,0-.46-1.56,3.55,3.55,0,0,0-.57-.75,1,1,0,0,0-.41-.34.94.94,0,0,0-.22-.12l-.63-.23-.77-.28a1.34,1.34,0,0,0-.4-.07,1.39,1.39,0,0,0-1.19.79,1.5,1.5,0,0,0-.09.18,23.22,23.22,0,0,0-.87,3.27l-.69,3.45s0,.11,0,.16a.77.77,0,0,1-.06.27l-.08.23-.09.23a.83.83,0,0,0,0,.15,49.84,49.84,0,0,1-2.32,8c-6,15.3-21.68,30.82-38.17,37.73-9.32,3.91-20.75,6-33.06,6a110.08,110.08,0,0,1-36.82-6.25,1.86,1.86,0,0,0-.69-.28.72.72,0,0,0-.27-.15l-.06,0-.2-.18,0,0a5.64,5.64,0,0,0,.31-.71l0-.08.24-.9.18-.75a9.37,9.37,0,0,0,.44-3.17v-.1a.2.2,0,0,1,0-.08,4.7,4.7,0,0,0,.4-1.18c.23-.64.38-1.09.45-1.37a2.12,2.12,0,0,0,.08-.76.62.62,0,0,1,0-.18,4,4,0,0,0,.2-.72,1.13,1.13,0,0,1,.1-.33l0-.1.4-1.56a1.13,1.13,0,0,0,0-.32,1.1,1.1,0,0,0,0-.18l.29-1.12c.34-1.09.7-2.27,1.06-3.49a30.12,30.12,0,0,0,.82-3.62,1.48,1.48,0,0,0,0-.21,2.48,2.48,0,0,1,0-.77c.07-.26.16-.54.26-.83l0-.09.24-.89a.87.87,0,0,0,0-.32v0a.75.75,0,0,0,0-.16.94.94,0,0,0,.13-.41,13.17,13.17,0,0,1,.44-2.68c.22-.68.41-1.25.6-1.74l0-.11c.24-1,.51-2,.8-3.16a21.3,21.3,0,0,0,.61-3.12,2.33,2.33,0,0,0,.12-.9.53.53,0,0,1,0-.24.17.17,0,0,1,0,0l.41-1.37a.57.57,0,0,0,0-.18c0-.44.14-1,.25-1.61s.28-1.29.47-2l.26-.91.92-3.29c.36-1.25.59-2.17.7-2.79a.27.27,0,0,0,.06-.1l.09-.09a94.12,94.12,0,0,0,7.94-10.6c2.47-3.8,4.84-7.78,7-11.85.89-1.76,1.86-3.82,2.89-6.16s2-4.74,2.89-7.13l.53-1,.06-.13.23-.63c.27-.76.51-1.49.69-2.15a13.12,13.12,0,0,0,.39-2.34,23,23,0,0,0,.24-2.67,22.5,22.5,0,0,1,.17-2.34.57.57,0,0,0,0-.13V23.78l0-.93a10.67,10.67,0,0,0-.39-2.4.58.58,0,0,0-.06-.17,1.41,1.41,0,0,1-.15-.49,1.11,1.11,0,0,0-.07-.26l-.79-2a.08.08,0,0,0,0-.05l-.4-.86a.24.24,0,0,0-.06-.11l-.47-.76a3.78,3.78,0,0,0-.6-.91,6.65,6.65,0,0,0-.57-.53,1,1,0,0,0-.28-.16l-1.44-.52,0,0a2.78,2.78,0,0,0-1.89-.74Zm-1.5,6.17a2.44,2.44,0,0,0,.8-.21l.46.07.11,0,.45.64.76,1.64.18,1v0a2.1,2.1,0,0,0,.11.75l.11,1,.07,1.24v.06a5.74,5.74,0,0,1-.15,2.3s0,.05,0,.07L111,29.33a1.1,1.1,0,0,0,0,.18h0a1.91,1.91,0,0,0-.24.89,1.09,1.09,0,0,0,0,.26l-.19.5a3.07,3.07,0,0,0-.14.67l-1.13,3.55a.9.9,0,0,0,0,.36l-.29.8a.25.25,0,0,0,0,.07,15,15,0,0,1-1.27,3.26l-.06.12c-1,2.15-2,4.29-3.18,6.37s-2.56,4.38-4.24,6.87c-1,1.69-2.12,3.39-3.25,5.09-.25.39-.51.77-.76,1.14,0-.07.05-.14.07-.2a1.21,1.21,0,0,0,0-.18l.38-2.27c0-.05,0-.09,0-.14a2.18,2.18,0,0,1,.15-.76,4.46,4.46,0,0,0,.28-1.31v-.18l.11-.29a1.07,1.07,0,0,0,.19-.78c.06-.17.13-.4.21-.68s.16-.68.23-1a3.86,3.86,0,0,1,.16-.66.36.36,0,0,0,0-.11l.84-3.52.31-1.58.68-2.3a1,1,0,0,0,.06-.35v-.07l.52-1.42,0-.09.24-.89s0,0,0-.07l.36-1.94a1,1,0,0,0,0-.25.68.68,0,0,0,0-.2l0-.19.33-.9s0-.08,0-.13a10.73,10.73,0,0,1,.46-1.47,2.17,2.17,0,0,0,.19-1.26l.38-1,0-.11.17-.71.87-2.83.33-.92s0,0,0-.05c.28-.91.54-1.8.8-2.66A22.24,22.24,0,0,1,106,23a1,1,0,0,0,.09-.49v0a1.06,1.06,0,0,0,0-.19,2.12,2.12,0,0,1,.15-.56,1.2,1.2,0,0,0,.21-.34c0-.05,0-.09,0-.12a.82.82,0,0,0,.24-.25l1-1.45.58-.47.16,0ZM65.94,127.51c.79-.28,1.67-.56,2.64-.85a8.31,8.31,0,0,1,2.19-.38h.11l2.69.15-.25.54a.25.25,0,0,1,0,.07l-.24.64-.2.56a27.76,27.76,0,0,0-1.3,2.92c-.48,1.22-1,2.59-1.53,4.05l-.75,2c-.3.82-.64,1.66-1,2.51s-.9,2-1.56,3.3a.87.87,0,0,0-.07.17L66,145.41l-.35.74-.55,1a1.34,1.34,0,0,0-.07.18,19.53,19.53,0,0,1-2.09,4l-.09.19-.4,1.1a3.08,3.08,0,0,1-.26.51.89.89,0,0,0-.08.17,16.53,16.53,0,0,1-1,2.26l-.14.25-1.29,2.3c-.32.57-.59,1-.81,1.4a5.24,5.24,0,0,1-.65.84l-.05.07L57,161.88c-.28.29-.41.44-.49.53a2.18,2.18,0,0,0-.58.47l-.14.14a1,1,0,0,0-.26.23l-.17.06a2,2,0,0,0-.57.15l-.29.14a2.17,2.17,0,0,0-1.14-.38h-.06l0,0a1,1,0,0,0-.22-.29l-.25-.55a.93.93,0,0,0-.29-.36h0a2.43,2.43,0,0,1-.29-.83,25.94,25.94,0,0,1-.4-4.23,29.35,29.35,0,0,1,.31-4.37,1.06,1.06,0,0,0-.06-.5l0-.09a.85.85,0,0,0,.06-.31q0-.51.06-1c0-.29.05-.57.09-.83a.45.45,0,0,0,0-.11,7.69,7.69,0,0,1,.07-.8l.42-1.86.47-1.75a.59.59,0,0,0,0-.14,12.83,12.83,0,0,1,.53-2.22A11.21,11.21,0,0,1,55,140.62a1,1,0,0,0,.14-.69,1.92,1.92,0,0,1,0-.83,7.18,7.18,0,0,1,.4-.86.08.08,0,0,0,0-.05l.4-.83a.9.9,0,0,0,.08-.28,1.19,1.19,0,0,1,.15-.41l.45-.73a.41.41,0,0,0,0-.09l.18-.39a1.07,1.07,0,0,0,.18-.19c.36-.52.73-1,1.1-1.55a11.46,11.46,0,0,1,1.16-1.38,1,1,0,0,0,.21-.31l.07-.05.65-.57c.45-.39.89-.8,1.29-1.21a3.83,3.83,0,0,1,1.13-.78l.09,0,3.2-1.87Z"/></g></svg>