<svg id="圖層_1" data-name="圖層 1" xmlns="http://www.w3.org/2000/svg" viewBox="0 0 600 600"><defs><style>.cls-1{font-size:51.5px;font-family:Amiri-Regular, Amiri;}.cls-1,.cls-2{fill:#fff;}</style></defs><text class="cls-1" transform="translate(69.73 439.22) rotate(-118.02)">Y</text><text class="cls-1" transform="matrix(-0.39, -0.92, 0.92, -0.39, 55.12, 410.91)">I</text><text class="cls-1" transform="matrix(-0.3, -0.95, 0.95, -0.3, 47.96, 394.26)">L</text><text class="cls-1" transform="translate(38.97 365.71) rotate(-100.72)">A</text><text class="cls-1" transform="translate(32.68 333.28) rotate(-92.89)">N</text><text class="cls-1" transform="translate(31.41 292.56) rotate(-87.26)">’</text><text class="cls-1" transform="translate(31.81 280.05) rotate(-83.06)">S</text><text class="cls-1" transform="matrix(0.2, -0.98, 0.98, 0.2, 35.37, 253.16)"> </text><text class="cls-1" transform="translate(38.66 236.51) rotate(-73.7)">S</text><text class="cls-1" transform="matrix(0.39, -0.92, 0.92, 0.39, 46.12, 210.66)">T</text><text class="cls-1" transform="translate(58.78 180.22) rotate(-59.74)">U</text><text class="cls-1" transform="translate(77.93 147.65) rotate(-51.7)">D</text><text class="cls-1" transform="translate(101.27 119) rotate(-45.86)">I</text><text class="cls-1" transform="matrix(0.77, -0.64, 0.64, 0.77, 113.16, 106.05)">O</text><text class="cls-1" transform="translate(143.75 81.34) rotate(-34)"> </text><text class="cls-1" transform="matrix(0.88, -0.48, 0.48, 0.88, 157.62, 71.67)">Y</text><text class="cls-1" transform="translate(185.72 56.68) rotate(-23.46)">I</text><text class="cls-1" transform="matrix(0.95, -0.31, 0.31, 0.95, 202.26, 49.29)">L</text><text class="cls-1" transform="translate(230.7 39.9) rotate(-11.52)">A</text><text class="cls-1" transform="translate(263 33.17) rotate(-3.69)">N</text><text class="cls-1" transform="translate(303.71 31.33) rotate(1.95)">’</text><text class="cls-1" transform="translate(316.23 31.55) rotate(6.15)">S</text><text class="cls-1" transform="matrix(0.98, 0.19, -0.19, 0.98, 343.18, 34.75)"> </text><text class="cls-1" transform="translate(359.88 37.81) rotate(15.51)">S</text><text class="cls-1" transform="matrix(0.93, 0.37, -0.37, 0.93, 385.83, 44.92)">T</text><text class="cls-1" transform="matrix(0.87, 0.49, -0.49, 0.87, 416.43, 57.15)">U</text><text class="cls-1" transform="matrix(0.79, 0.61, -0.61, 0.79, 449.28, 75.85)">D</text><text class="cls-1" transform="matrix(0.73, 0.69, -0.69, 0.73, 478.25, 98.79)">I</text><text class="cls-1" transform="translate(491.35 110.49) rotate(49.32)">O</text><text class="cls-1" transform="translate(516.47 140.73) rotate(55.21)"> </text><text class="cls-1" transform="matrix(0.49, 0.87, -0.87, 0.49, 526.34, 154.48)">Y</text><text class="cls-1" transform="translate(541.72 182.37) rotate(65.74)">I</text><text class="cls-1" transform="translate(549.33 198.79) rotate(70.93)">L</text><text class="cls-1" transform="translate(559.12 227.11) rotate(77.69)">A</text><text class="cls-1" transform="matrix(0.08, 1, -1, 0.08, 566.31, 259.34)">N</text><text class="cls-1" transform="translate(568.7 300.01) rotate(91.16)">’</text><text class="cls-1" transform="matrix(-0.09, 1, -1, -0.09, 568.64, 312.53)">S</text><text class="cls-1" transform="matrix(-0.17, 0.98, -0.98, -0.17, 565.83, 339.5)"> </text><text class="cls-1" transform="matrix(-0.25, 0.97, -0.97, -0.25, 562.99, 356.25)">S</text><text class="cls-1" transform="matrix(-0.36, 0.93, -0.93, -0.36, 556.24, 382.28)">T</text><text class="cls-1" transform="matrix(-0.48, 0.88, -0.88, -0.48, 544.43, 413.06)">U</text><text class="cls-1" transform="matrix(-0.6, 0.8, -0.8, -0.6, 526.19, 446.17)">D</text><text class="cls-1" transform="translate(503.66 475.45) rotate(132.55)">I</text><text class="cls-1" transform="translate(492.14 488.72) rotate(138.54)">O</text><text class="cls-1" transform="translate(462.23 514.25) rotate(144.43)"> </text><text class="cls-1" transform="translate(448.63 524.3) rotate(149.6)">Y</text><text class="cls-1" transform="matrix(-0.91, 0.42, -0.42, -0.91, 420.96, 540.06)">I</text><text class="cls-1" transform="translate(404.63 547.91) rotate(160.13)">L</text><text class="cls-1" transform="translate(376.45 558.09) rotate(166.9)">A</text><text class="cls-1" transform="matrix(-1, 0.09, -0.09, -1, 344.34, 565.72)">N</text><text class="cls-1" transform="matrix(-1, -0.01, 0.01, -1, 303.69, 568.68)">’</text><text class="cls-1" transform="translate(291.17 568.8) rotate(-175.42)">S</text><text class="cls-1" transform="matrix(-0.99, -0.16, 0.16, -0.99, 264.17, 566.35)"> </text><text class="cls-1" transform="translate(247.38 563.74) rotate(-166.07)">S</text><text class="cls-1" transform="translate(221.28 557.35) rotate(-159.69)">T</text><text class="cls-1" transform="translate(190.32 545.96) rotate(-152.13)">U</text><text class="cls-1" transform="translate(156.96 528.19) rotate(-144.09)">D</text><text class="cls-1" transform="matrix(-0.75, -0.67, 0.67, -0.75, 127.37, 506.06)">I</text><text class="cls-1" transform="matrix(-0.67, -0.74, 0.74, -0.67, 113.94, 494.73)">O</text><path class="cls-2" d="M104.09,244.18c34-14.9,64.66-36.91,87.41-66.51,9.52-12.4,20.72-31.86,11.08-47.22A26.37,26.37,0,0,0,187,119a24.28,24.28,0,0,0-11.21.26A76.44,76.44,0,0,0,162,124a38.69,38.69,0,0,0-8.08,4.43,3.73,3.73,0,0,0-1.82,3.1q-.29,1.69-.54,3.39c-.38,2.62-.69,5.26-.92,7.9-.43,5-.6,10-.53,15a196.47,196.47,0,0,0,2.78,29.34c3.37,20.29,9.18,40.08,15,59.78s11.32,39.28,15.78,59.25q6.78,30.25,10.93,61T200.25,429q.76,15.59.84,31.19c0,7.68,0,15.48-2,23a29.87,29.87,0,0,1-4.41,9.81,20.84,20.84,0,0,1-3.57,3.93l-1.46,1-.24.15a40.24,40.24,0,0,1,12.07-4.48c-.41,0-1,.07-1.39,0-8.51-.52-10.58-11.4-10.55-18.15.07-15.07,9.84-28.33,21.84-36.54.81-.56,1.65-1.09,2.49-1.62,1.11-.71.22-.15,0,0,.51-.3,1-.6,1.55-.88l1.05-.57c.19-.1,1.93-.81.57-.3s.4-.17.58-.26c2-1-2.31,1-.29.12.36-.14.74-.28,1.09-.45-3.32,1.53-1.38.46-.57.25-.06,0-2.89,1-1.15.42.29-.1,2.17-.74.39-.14s.1,0,.4-.09c1.61-.47-.5.09-.52.12.29-.48,3.59-.78,4.17-.88l.53-.09,2.3-.34c1-.14,2-.26,3.06-.37,2.67-.29,5.36-.48,8-.57,5-.16,10.09,0,15.11.3,19,1.13,37.86,4.1,57,4.22,36.27.24,72.84-6.82,105.46-23,15.26-7.59,29-17.23,40.64-29.77a227.45,227.45,0,0,0,28.15-38.21c16.8-28.2,29.73-60.09,33.75-92.83a140.11,140.11,0,0,0,1-22c0-1.31-10.29,2.14-11.1,2.44a52,52,0,0,0-7.29,3.21c-.7.4-2.73,1.22-2.7,2.2,1.14,32-9.18,64.19-23,92.67a263.78,263.78,0,0,1-25.49,42.33c-9.05,12.18-19.25,23.86-31.64,32.73q-2.32,1.66-4.73,3.23l-2.29,1.45-1.29.78c-.42.26-.34.21.24-.14l-1,.6c-1.57.9-3.15,1.77-4.76,2.6l-1.34.69c-1.17.6,2-1,.16-.09-1,.48-2,1-3,1.42-.45.21-.93.39-1.38.63.14-.08,2.39-1,.81-.36l-2.79,1.17c-.37.15-.75.29-1.12.45,3.34-1.44,1.28-.5.52-.22l-2.84,1.06c-2.09.75,2.27-.78.82-.29l-1.44.49c-1,.32-1.93.62-2.89.93-.6.19-1.88.52.82-.25l-1.16.35c-1.17.34-2.34.68-3.52,1-.6.16-3.78,1.12-1.32.36-.77.24-1.59.39-2.37.58q-3.12.73-6.27,1.37l-2.7.53c-.17,0-2.17.39-.65.12l-1.2.21q-3,.51-6.05.94a233.67,233.67,0,0,1-24.22,2.12c-17.62.65-35-1.06-52.54-2.81A239.87,239.87,0,0,0,255.08,425a118.93,118.93,0,0,0-33.32,5.59c-17.48,5.62-35.89,14.74-46.24,30.59a42.14,42.14,0,0,0-7.05,20.55c-.36,7,1,16.23,8.17,19.45,6,2.71,14.09-.6,19.72-2.71,6-2.26,12.37-5,16.89-9.76,4.94-5.2,7.13-12.53,8.12-19.47,1.24-8.64.86-17.49.7-26.19q-.27-15.21-1.2-30.39A723.48,723.48,0,0,0,203,290.81c-4.68-19.9-10.49-39.47-16.23-59.08-5.69-19.42-11.12-39-13.85-59.12a179,179,0,0,1-1.69-29.72,141.08,141.08,0,0,1,1.23-14.67c.17-1.26.36-2.51.57-3.76.12-.7-.08-2.19.81-2.14a18.09,18.09,0,0,0-1.93,1,55,55,0,0,1-9.82,3.49c-1.89.39-.37.08,0,0,.93-.1-.38-.06.64,0,6.43.15,12.33,3.62,16.46,8.41,5.17,6,6.55,13.72,5.35,21.44-1.4,9-6,17.11-11.23,24.41a182.24,182.24,0,0,1-17.28,20.46,202,202,0,0,1-40.52,32.34l-1.14.68c1-.57,0,0-.18.1l-2.89,1.66q-2.75,1.54-5.55,3c-.88.46-1.76.93-2.66,1.37l-1.53.73c-1,.48-2,1-3,1.41-.72.33-4.09,1.82-1.18.54a33.54,33.54,0,0,0-6,3c-.7.5-1.64,1.07-.63,1.54,1.17.55,4.18-.63,5.17-.92a65.52,65.52,0,0,0,8.18-2.87Z"/></svg>